<?xml version="1.0" encoding="UTF-8"?><svg id="a" xmlns="http://www.w3.org/2000/svg" viewBox="0 0 570 250"><defs><style>.b{fill:#b0a5b6;}.c{fill:#96b195;}.d{fill:#ffd9ad;}.e{fill:#ffc9ad;}.f{fill:#1f1f1f;}</style></defs><rect class="c" x="428.88" y="198.26" width="23.87" height="6.1"/><rect class="d" x="464.69" y="198.26" width="23.87" height="6.1"/><rect class="b" x="500.5" y="198.26" width="23.87" height="6.1"/><rect class="e" x="46.95" y="198.26" width="358.06" height="6.1"/><path class="f" d="M46.95,88.49c1-.04,1.83-.17,2.5-.39,.67-.22,1.19-.71,1.56-1.5s.55-2.04,.55-3.77v-24.89c0-1.17,.03-2.3,.1-3.38s.12-1.91,.16-2.47c-.69,.04-1.56,.08-2.6,.1-1.04,.02-1.8,.05-2.28,.1v-5c3.08-.04,6.15-.07,9.23-.07s6.15-.02,9.23-.06c3.81-.04,7.14,.46,9.98,1.5s5.03,2.64,6.57,4.81c1.54,2.17,2.26,4.98,2.18,8.45-.04,1.73-.46,3.43-1.24,5.1-.78,1.67-1.93,3.18-3.45,4.55-1.52,1.37-3.42,2.48-5.72,3.35-2.3,.87-4.98,1.34-8.06,1.43-.95,.04-1.79,.07-2.5,.07s-1.44-.02-2.18-.07v5.72c0,1.21-.02,2.36-.07,3.44-.04,1.08-.11,1.91-.2,2.47,.48-.04,1.08-.08,1.82-.1,.74-.02,1.46-.04,2.18-.07,.72-.02,1.22-.03,1.53-.03v5h-19.31v-4.29Zm14.04-17.03c.48,.04,.95,.09,1.43,.13,.48,.04,.97,.07,1.49,.07,2.38,0,4.32-.4,5.82-1.2,1.49-.8,2.59-1.97,3.28-3.51,.69-1.54,1.04-3.41,1.04-5.62s-.29-3.9-.88-5.2c-.59-1.3-1.33-2.26-2.24-2.89-.91-.63-1.86-1.04-2.86-1.23-1-.2-1.91-.29-2.73-.29-.91,0-1.69,.11-2.34,.33-.65,.22-1.15,.69-1.5,1.43-.35,.74-.52,1.86-.52,3.38v14.62Z"/><path class="f" d="M102.85,93.82c-1.86,0-3.68-.24-5.46-.71s-3.16-1.08-4.16-1.82l.13,1.95h-4.94l-.26-11.18h4.23c.13,1.3,.65,2.49,1.56,3.57,.91,1.08,2.1,1.94,3.58,2.57,1.47,.63,3.12,.94,4.94,.94,.74,0,1.44-.11,2.11-.33,.67-.22,1.23-.57,1.69-1.07s.68-1.12,.68-1.85c0-.82-.29-1.5-.88-2.02-.58-.52-1.43-1.02-2.54-1.5-1.1-.48-2.48-1.02-4.13-1.62-1.34-.52-2.7-1.06-4.06-1.62-1.37-.56-2.62-1.25-3.77-2.05-1.15-.8-2.07-1.8-2.76-2.99-.69-1.19-1.04-2.65-1.04-4.39,0-1.26,.24-2.5,.71-3.74,.48-1.24,1.21-2.36,2.21-3.38,1-1.02,2.26-1.83,3.8-2.44,1.54-.61,3.37-.91,5.49-.91,1.17,0,2.5,.18,4,.55,1.5,.37,2.76,.92,3.8,1.66v-1.88h4.94v11.5h-4.23c-.26-1.52-.79-2.82-1.59-3.9-.8-1.08-1.83-1.92-3.09-2.5-1.26-.58-2.67-.88-4.22-.88-1.08,0-2.07,.26-2.96,.78-.89,.52-1.33,1.41-1.33,2.67,0,1,.35,1.79,1.04,2.37,.69,.58,1.65,1.07,2.86,1.46s2.56,.84,4.03,1.37c2.21,.74,4.17,1.6,5.88,2.6,1.71,1,3.07,2.2,4.06,3.61,1,1.41,1.5,3.13,1.5,5.17,0,2.25-.56,4.12-1.69,5.59-1.13,1.47-2.59,2.58-4.39,3.31-1.8,.74-3.72,1.11-5.75,1.11Z"/><path class="f" d="M126.38,110.4c-1.65,0-3.04-.49-4.19-1.46-1.15-.97-1.72-2.26-1.72-3.87,0-1.17,.38-2.2,1.14-3.09,.76-.89,1.74-1.35,2.96-1.4,.95-.04,1.76,.27,2.44,.94,.67,.67,1.01,1.59,1.01,2.76v.39c0,.13-.02,.28-.07,.46,.09,0,.19-.02,.33-.06,.39-.13,.81-.49,1.27-1.07s.9-1.36,1.33-2.31c.48-1,.94-2.11,1.4-3.35s.85-2.53,1.2-3.87l-10.27-20.61c-1.21-2.43-2-4.26-2.37-5.49-.37-1.24-.62-2.33-.75-3.28l-2.99,.13v-4.94h16.18v4.16c-1.6,.17-2.48,.78-2.63,1.82-.15,1.04,.03,2.12,.55,3.25l6.37,14.56c.43-1.13,1-2.87,1.69-5.23,.69-2.36,1.52-4.93,2.47-7.7,.17-.56,.4-1.22,.68-1.98,.28-.76,.6-1.52,.94-2.27,.35-.76,.71-1.38,1.1-1.85l-3.71,.2v-4.94h11.57v4.16c-1.34,.3-2.46,1.13-3.35,2.47-.89,1.34-1.68,2.99-2.37,4.94l-8.12,23.21c-1.21,3.51-2.36,6.4-3.45,8.68-1.08,2.28-2.3,3.95-3.64,5.04-1.34,1.08-3.01,1.62-5,1.62Z"/><path class="f" d="M170.58,93.82c-2.9,0-5.57-.65-8-1.95-2.43-1.3-4.37-3.18-5.82-5.66-1.45-2.47-2.18-5.46-2.18-8.97,0-2.47,.41-4.79,1.23-6.96,.82-2.17,1.98-4.07,3.48-5.72,1.49-1.65,3.27-2.95,5.33-3.9,2.06-.95,4.34-1.43,6.86-1.43,2.77,0,5.08,.42,6.92,1.27s3.23,1.95,4.16,3.32c.93,1.36,1.4,2.81,1.4,4.32,0,1.26-.38,2.37-1.14,3.35-.76,.97-1.83,1.48-3.22,1.53-1.65,.04-2.79-.42-3.45-1.4-.65-.98-.97-1.92-.97-2.83,0-.39,.06-.85,.19-1.4,.13-.54,.33-1.03,.58-1.46-.3-.65-.76-1.13-1.37-1.43-.61-.3-1.22-.51-1.85-.62-.63-.11-1.14-.14-1.53-.1-2.08,.13-3.79,1.17-5.13,3.12-1.34,1.95-2.01,4.77-2.01,8.45,0,2.17,.27,4.19,.81,6.08,.54,1.89,1.44,3.44,2.7,4.65,1.26,1.21,2.95,1.86,5.07,1.95,1.82,.04,3.6-.39,5.33-1.3,1.73-.91,3.21-2.15,4.42-3.71l2.99,2.92c-1.56,2.17-3.19,3.81-4.88,4.94-1.69,1.13-3.37,1.89-5.04,2.31-1.67,.41-3.31,.62-4.91,.62Z"/><path class="f" d="M208.28,88.56c1.21,0,2.09-.24,2.63-.72,.54-.48,.89-1.16,1.04-2.05,.15-.89,.23-1.9,.23-3.02l-.07-9.23c-.04-2.82-.48-4.91-1.3-6.27-.82-1.37-2.15-2.05-3.96-2.05-1.08,0-2.16,.24-3.22,.71-1.06,.48-1.96,1.04-2.7,1.69v14.69c0,.61-.02,1.46-.06,2.57-.04,1.1-.11,2.16-.2,3.15,.74-.09,1.52-.14,2.34-.16,.82-.02,1.45-.03,1.88-.03v4.94h-17.03v-4.22c1.21,0,2.09-.24,2.63-.72,.54-.48,.88-1.16,1.01-2.05,.13-.89,.19-1.9,.19-3.02v-26.71c0-.78,.02-1.68,.07-2.7,.04-1.02,.11-2,.2-2.96-.69,.04-1.51,.08-2.44,.1-.93,.02-1.64,.05-2.11,.1v-4.94c2.04,0,3.74-.11,5.1-.33,1.37-.22,2.45-.48,3.25-.78,.8-.3,1.35-.58,1.66-.84h3.51v19.17c.87-.69,1.86-1.31,2.99-1.85,1.13-.54,2.28-.97,3.45-1.3s2.19-.49,3.05-.49c3.99,0,6.81,1.14,8.48,3.41,1.67,2.28,2.5,5.93,2.5,10.95v8.71c0,.61-.02,1.46-.07,2.57-.04,1.1-.11,2.16-.2,3.15,.69-.09,1.45-.14,2.28-.16,.82-.02,1.47-.03,1.95-.03v4.94h-17.09v-4.22Z"/><path class="f" d="M245.2,93.82c-3.12,0-5.94-.67-8.45-2.01-2.51-1.34-4.5-3.26-5.95-5.75-1.45-2.49-2.18-5.43-2.18-8.81,0-3.6,.75-6.75,2.24-9.46,1.5-2.71,3.49-4.81,5.98-6.31s5.21-2.24,8.16-2.24c3.12,0,5.91,.67,8.38,2.01,2.47,1.34,4.42,3.26,5.85,5.75,1.43,2.49,2.14,5.47,2.14,8.94,0,3.64-.69,6.8-2.08,9.49-1.39,2.69-3.29,4.76-5.72,6.21-2.43,1.45-5.22,2.18-8.39,2.18Zm.26-4.62c1.73-.04,3.04-.65,3.93-1.82,.89-1.17,1.51-2.64,1.85-4.42,.35-1.78,.52-3.57,.52-5.39,0-1.6-.12-3.23-.36-4.88-.24-1.65-.62-3.14-1.14-4.49-.52-1.34-1.23-2.43-2.11-3.25-.89-.82-1.98-1.21-3.28-1.17-1.69,.04-3.02,.65-4,1.82s-1.67,2.63-2.08,4.39c-.41,1.75-.62,3.59-.62,5.49,0,2.21,.24,4.38,.72,6.5,.48,2.12,1.25,3.87,2.31,5.23,1.06,1.37,2.48,2.03,4.26,1.98Z"/><path class="f" d="M278.93,93.82c-1.3,0-2.56-.15-3.77-.46-1.21-.3-2.3-.88-3.25-1.72-.95-.84-1.71-2.09-2.27-3.74-.56-1.65-.85-3.83-.85-6.57l.13-15.67h-4.42v-5.39c1.34-.04,2.64-.5,3.9-1.37,1.26-.87,2.33-1.99,3.22-3.38,.89-1.39,1.48-2.84,1.79-4.35h4.81l-.07,9.1h8.26v5l-8.26,.2-.06,15.99c0,1,.1,1.98,.29,2.96s.57,1.78,1.14,2.41c.56,.63,1.39,.94,2.47,.94,.61,0,1.44-.22,2.5-.65,1.06-.43,2.2-1.52,3.41-3.25l3.12,2.92c-1.17,1.73-2.38,3.08-3.64,4.03-1.26,.95-2.46,1.65-3.61,2.08s-2.16,.69-3.02,.78c-.87,.09-1.47,.13-1.82,.13Z"/><path class="f" d="M312.28,88.56c1.21,0,2.09-.24,2.63-.72,.54-.48,.89-1.16,1.04-2.05,.15-.89,.23-1.9,.23-3.02l-.06-9.23c-.04-2.82-.48-4.91-1.3-6.27-.82-1.37-2.14-2.05-3.96-2.05-1.08,0-2.16,.24-3.22,.71-1.06,.48-1.96,1.04-2.7,1.69v14.69c0,.61-.02,1.46-.07,2.57-.04,1.1-.11,2.16-.19,3.15,.74-.09,1.52-.14,2.34-.16,.82-.02,1.45-.03,1.88-.03v4.94h-17.03v-4.22c1.21,0,2.09-.24,2.63-.72,.54-.48,.88-1.16,1.01-2.05,.13-.89,.2-1.9,.2-3.02v-26.71c0-.78,.02-1.68,.06-2.7,.04-1.02,.11-2,.2-2.96-.69,.04-1.51,.08-2.44,.1-.93,.02-1.64,.05-2.11,.1v-4.94c2.04,0,3.74-.11,5.1-.33,1.37-.22,2.45-.48,3.25-.78,.8-.3,1.35-.58,1.66-.84h3.51v19.17c.87-.69,1.86-1.31,2.99-1.85,1.13-.54,2.27-.97,3.44-1.3s2.19-.49,3.06-.49c3.99,0,6.81,1.14,8.48,3.41,1.67,2.28,2.5,5.93,2.5,10.95v8.71c0,.61-.02,1.46-.07,2.57-.04,1.1-.11,2.16-.2,3.15,.69-.09,1.45-.14,2.28-.16,.82-.02,1.47-.03,1.95-.03v4.94h-17.1v-4.22Z"/><path class="f" d="M348.68,93.82c-3.16,0-5.96-.71-8.38-2.11-2.43-1.41-4.31-3.4-5.66-5.98-1.34-2.58-2.01-5.62-2.01-9.13,0-3.03,.67-5.87,2.01-8.52,1.34-2.64,3.24-4.78,5.69-6.4,2.45-1.62,5.3-2.44,8.55-2.44,1.82,0,3.6,.25,5.33,.75,1.73,.5,3.3,1.36,4.71,2.57s2.54,2.86,3.38,4.94c.84,2.08,1.24,4.68,1.2,7.8l-21.32,.39c0,2.34,.29,4.44,.88,6.3,.58,1.86,1.55,3.34,2.89,4.42,1.34,1.08,3.14,1.62,5.39,1.62,.87,0,1.85-.15,2.96-.46,1.11-.3,2.23-.81,3.38-1.53,1.15-.71,2.22-1.68,3.22-2.89l2.93,2.73c-1.56,2.21-3.23,3.89-5.01,5.04-1.78,1.15-3.54,1.92-5.3,2.31s-3.37,.58-4.84,.58Zm-6.11-22.68h11.96c-.04-1.82-.29-3.26-.75-4.32-.46-1.06-1.07-1.83-1.85-2.31-.78-.48-1.69-.71-2.73-.71-1.91,0-3.4,.68-4.49,2.05s-1.8,3.13-2.15,5.3Z"/><path class="f" d="M368.24,88.56c1.21,0,2.08-.24,2.6-.72,.52-.48,.86-1.16,1.01-2.05,.15-.89,.23-1.9,.23-3.02v-10.92c0-.78,.02-1.66,.07-2.63,.04-.97,.11-1.94,.19-2.89-.69,.04-1.51,.08-2.44,.1-.93,.02-1.63,.05-2.11,.1v-4.94h2.6c1.69,0,3.24-.22,4.65-.65,1.41-.43,2.33-.87,2.76-1.3h3.18c.09,.43,.15,1.25,.2,2.44,.04,1.19,.07,2.24,.07,3.15,1.17-1.43,2.27-2.58,3.31-3.45,1.04-.87,2.07-1.5,3.09-1.92,1.02-.41,2.05-.62,3.09-.62,1.52,0,2.84,.42,3.97,1.27,1.12,.84,1.69,2.22,1.69,4.13,0,.65-.15,1.33-.46,2.05-.3,.71-.78,1.31-1.43,1.79s-1.54,.71-2.67,.71c-.87,0-1.75-.26-2.66-.78s-1.43-1.52-1.56-2.99c-.87,0-1.73,.36-2.6,1.07-.87,.72-1.64,1.56-2.31,2.54-.67,.98-1.14,1.88-1.4,2.7v10.59c0,.61-.02,1.46-.06,2.57-.04,1.1-.11,2.16-.2,3.15,.69-.09,1.46-.14,2.31-.16,.85-.02,1.48-.03,1.92-.03v4.94h-17.03v-4.22Z"/><path class="f" d="M417.51,92.78c-.09-.61-.14-1.12-.16-1.53-.02-.41-.05-.9-.1-1.46-1.47,1.47-3.03,2.51-4.68,3.12-1.65,.61-3.32,.91-5,.91-2.77,0-4.94-.82-6.5-2.47s-2.34-3.71-2.34-6.18c0-2.08,.53-3.86,1.59-5.33,1.06-1.47,2.47-2.68,4.23-3.61,1.75-.93,3.71-1.65,5.85-2.14,2.14-.5,4.3-.79,6.47-.88v-3.38c0-1.13-.14-2.14-.42-3.05-.28-.91-.76-1.62-1.43-2.14-.67-.52-1.61-.76-2.83-.72-.82,.04-1.62,.22-2.41,.52-.78,.3-1.45,.74-2.01,1.3,.35,.39,.56,.81,.65,1.27s.13,.86,.13,1.2c0,.87-.35,1.77-1.04,2.7-.69,.93-1.8,1.38-3.32,1.33-1.3-.04-2.3-.5-2.99-1.37-.69-.87-1.04-1.88-1.04-3.05,0-1.73,.62-3.24,1.85-4.52,1.24-1.28,2.89-2.28,4.97-2.99s4.38-1.07,6.89-1.07c3.81,0,6.77,.99,8.87,2.96,2.1,1.97,3.15,5.12,3.15,9.46v3.77c0,1.04-.01,2.08-.03,3.12s-.03,2.3-.03,3.77c0,.61-.02,1.46-.07,2.57-.04,1.1-.11,2.16-.2,3.15,.74-.09,1.52-.14,2.34-.16,.82-.02,1.45-.03,1.89-.03v4.94h-12.29Zm-.71-14.95c-1.21,.13-2.36,.35-3.45,.65-1.08,.3-2.03,.71-2.83,1.23-.8,.52-1.43,1.15-1.88,1.89-.46,.74-.68,1.56-.68,2.47,.04,1.21,.43,2.08,1.17,2.6,.74,.52,1.58,.78,2.53,.78s1.93-.22,2.8-.65c.87-.43,1.65-1,2.34-1.69v-7.28Z"/><path class="f" d="M432.85,109.36v-4.23c1.21,0,2.09-.24,2.63-.71,.54-.48,.89-1.16,1.04-2.05,.15-.89,.23-1.9,.23-3.02v-27.5c0-.78,.02-1.66,.07-2.63,.04-.97,.11-1.94,.19-2.89-.69,.04-1.52,.08-2.47,.1-.95,.02-1.67,.05-2.15,.1v-4.94c2.04,0,3.74-.11,5.1-.33,1.37-.22,2.45-.48,3.25-.78,.8-.3,1.35-.58,1.66-.85h3.18c.09,.43,.15,.96,.2,1.59,.04,.63,.09,1.14,.13,1.53,1.52-1.3,3.02-2.21,4.52-2.73,1.49-.52,2.91-.78,4.26-.78,2.6,0,4.89,.67,6.86,2.01,1.97,1.34,3.51,3.25,4.62,5.72,1.1,2.47,1.66,5.37,1.66,8.71s-.67,6.58-2.01,9.33c-1.34,2.75-3.22,4.91-5.62,6.47-2.41,1.56-5.23,2.34-8.48,2.34-1.17,0-2.22-.12-3.15-.36-.93-.24-1.81-.51-2.63-.81v6.24c0,.61-.01,1.46-.03,2.57-.02,1.1-.08,2.16-.16,3.15,.69-.09,1.45-.14,2.28-.16,.82-.02,1.45-.03,1.88-.03v4.94h-17.03Zm17.81-20.41c1.99-.04,3.54-.64,4.65-1.79,1.1-1.15,1.87-2.65,2.31-4.52s.65-3.86,.65-5.98c0-1.99-.24-3.88-.71-5.66-.48-1.78-1.24-3.22-2.28-4.32-1.04-1.1-2.4-1.63-4.09-1.59-1.08,.04-2.08,.32-2.99,.81-.91,.5-1.67,1.18-2.27,2.05v19.83c.48,.3,1.15,.58,2.01,.84,.87,.26,1.78,.37,2.73,.33Z"/><path class="f" d="M472.56,88.56c1.21,0,2.08-.24,2.6-.72,.52-.48,.85-1.16,1.01-2.05,.15-.89,.23-1.9,.23-3.02v-10.79c0-.78,.02-1.68,.06-2.7s.11-2,.2-2.96c-.69,.04-1.51,.08-2.44,.1-.93,.02-1.64,.05-2.11,.1v-4.94c1.99,0,3.68-.11,5.07-.33,1.39-.22,2.48-.48,3.28-.78,.8-.3,1.35-.58,1.66-.85h3.51v22.69c0,.61-.02,1.46-.07,2.57-.04,1.1-.11,2.16-.19,3.15,.69-.09,1.46-.14,2.31-.16,.85-.02,1.48-.03,1.92-.03v4.94h-17.03v-4.22Zm8.12-34.06c-1.47,0-2.69-.52-3.64-1.56-.95-1.04-1.43-2.3-1.43-3.77s.5-2.73,1.49-3.77c1-1.04,2.17-1.56,3.51-1.56s2.54,.52,3.48,1.56c.93,1.04,1.4,2.3,1.4,3.77s-.43,2.73-1.3,3.77c-.87,1.04-2.04,1.56-3.51,1.56Z"/><path class="f" d="M509.22,93.82c-3.16,0-5.96-.71-8.38-2.11-2.43-1.41-4.31-3.4-5.66-5.98-1.34-2.58-2.01-5.62-2.01-9.13,0-3.03,.67-5.87,2.01-8.52,1.34-2.64,3.24-4.78,5.69-6.4s5.3-2.44,8.55-2.44c1.82,0,3.6,.25,5.33,.75,1.73,.5,3.3,1.36,4.71,2.57,1.41,1.21,2.53,2.86,3.38,4.94,.85,2.08,1.25,4.68,1.2,7.8l-21.32,.39c0,2.34,.29,4.44,.88,6.3,.59,1.86,1.55,3.34,2.89,4.42,1.34,1.08,3.14,1.62,5.4,1.62,.87,0,1.85-.15,2.96-.46,1.1-.3,2.23-.81,3.38-1.53s2.22-1.68,3.22-2.89l2.92,2.73c-1.56,2.21-3.23,3.89-5,5.04-1.78,1.15-3.54,1.92-5.3,2.31s-3.37,.58-4.84,.58Zm-6.11-22.68h11.96c-.04-1.82-.29-3.26-.75-4.32-.46-1.06-1.07-1.83-1.85-2.31-.78-.48-1.69-.71-2.73-.71-1.91,0-3.4,.68-4.48,2.05-1.08,1.37-1.8,3.13-2.14,5.3Z"/><path class="f" d="M66.63,150.59h-15.03l-2.88,7.85h-3.5l12.05-32.62h3.73l12.01,32.62h-3.5l-2.88-7.85Zm-.99-2.74l-6.52-17.87-6.52,17.87h13.05Z"/><path class="f" d="M97.97,135.01c1.95,1.91,2.93,4.67,2.93,8.3v15.13h-3.26v-14.75c0-2.8-.7-4.95-2.1-6.43s-3.32-2.22-5.74-2.22-4.48,.79-5.96,2.36c-1.48,1.58-2.22,3.89-2.22,6.95v14.09h-3.31v-25.81h3.31v4.4c.82-1.58,2-2.78,3.55-3.62,1.54-.83,3.29-1.25,5.25-1.25,3.09,0,5.61,.95,7.56,2.86Z"/><path class="f" d="M127.89,135.01c1.95,1.91,2.93,4.67,2.93,8.3v15.13h-3.26v-14.75c0-2.8-.7-4.95-2.1-6.43s-3.32-2.22-5.74-2.22-4.47,.79-5.96,2.36-2.22,3.89-2.22,6.95v14.09h-3.31v-25.81h3.31v4.4c.82-1.58,2-2.78,3.54-3.62,1.54-.83,3.29-1.25,5.25-1.25,3.09,0,5.61,.95,7.56,2.86Z"/><path class="f" d="M142.9,157.18c-1.94-1.09-3.47-2.63-4.58-4.63-1.12-2-1.68-4.34-1.68-7.02s.57-5.02,1.7-7.02c1.13-2,2.68-3.54,4.63-4.63,1.95-1.09,4.14-1.63,6.57-1.63s4.62,.54,6.59,1.63c1.97,1.09,3.51,2.63,4.63,4.63,1.12,2,1.68,4.34,1.68,7.02s-.57,4.98-1.7,7c-1.13,2.02-2.69,3.57-4.68,4.66-1.99,1.09-4.19,1.63-6.62,1.63s-4.61-.54-6.55-1.63Zm11.28-2.41c1.45-.77,2.62-1.94,3.52-3.5,.9-1.56,1.35-3.47,1.35-5.74s-.44-4.18-1.32-5.74c-.88-1.56-2.05-2.73-3.5-3.5-1.45-.77-3.03-1.16-4.73-1.16s-3.28,.39-4.73,1.16c-1.45,.77-2.61,1.94-3.47,3.5-.87,1.56-1.3,3.47-1.3,5.74s.43,4.18,1.3,5.74c.87,1.56,2.02,2.73,3.45,3.5,1.43,.77,3,1.16,4.7,1.16s3.28-.38,4.73-1.16Z"/><path class="f" d="M170.13,156.76c-1.88-1.37-2.92-3.24-3.14-5.6h3.4c.16,1.45,.84,2.62,2.06,3.52,1.21,.9,2.84,1.35,4.89,1.35,1.8,0,3.21-.42,4.23-1.28,1.02-.85,1.54-1.91,1.54-3.17,0-.88-.28-1.61-.85-2.17s-1.28-1.02-2.15-1.35c-.87-.33-2.04-.69-3.52-1.06-1.92-.5-3.48-1.01-4.68-1.51-1.2-.5-2.21-1.25-3.05-2.25-.84-.99-1.25-2.32-1.25-3.99,0-1.26,.38-2.43,1.13-3.5,.76-1.07,1.83-1.92,3.21-2.55,1.39-.63,2.96-.95,4.73-.95,2.77,0,5.01,.7,6.71,2.1s2.62,3.33,2.74,5.79h-3.31c-.09-1.51-.69-2.73-1.77-3.66-1.09-.93-2.58-1.39-4.47-1.39-1.67,0-3.03,.39-4.07,1.18-1.04,.79-1.56,1.77-1.56,2.93,0,1.01,.31,1.84,.92,2.48,.61,.65,1.38,1.15,2.29,1.51,.91,.36,2.14,.76,3.69,1.21,1.86,.5,3.34,.99,4.44,1.47,1.1,.47,2.05,1.17,2.84,2.08,.79,.91,1.2,2.13,1.23,3.64,0,1.39-.38,2.62-1.13,3.71-.76,1.09-1.81,1.95-3.17,2.58-1.36,.63-2.92,.95-4.68,.95-2.96,0-5.38-.69-7.26-2.06Z"/><path class="f" d="M196.91,135.41v16.03c0,1.58,.3,2.66,.9,3.26s1.65,.9,3.17,.9h3.03v2.84h-3.54c-2.33,0-4.07-.54-5.2-1.63-1.13-1.09-1.7-2.88-1.7-5.37v-16.03h-3.59v-2.79h3.59v-6.48h3.36v6.48h7.09v2.79h-7.09Z"/><path class="f" d="M216.08,133.48c1.5-.88,3.33-1.32,5.51-1.32v3.45h-.9c-2.4,0-4.32,.65-5.77,1.94-1.45,1.29-2.17,3.45-2.17,6.48v14.42h-3.31v-25.81h3.31v4.58c.72-1.61,1.83-2.85,3.33-3.73Z"/><path class="f" d="M226.62,138.51c1.06-2,2.52-3.54,4.4-4.63,1.88-1.09,4-1.63,6.36-1.63s4.58,.57,6.36,1.7c1.78,1.13,3.06,2.58,3.85,4.35v-5.67h3.31v25.81h-3.31v-5.72c-.82,1.76-2.12,3.22-3.9,4.37-1.78,1.15-3.9,1.73-6.36,1.73s-4.44-.55-6.31-1.65c-1.88-1.1-3.34-2.66-4.4-4.68-1.06-2.02-1.58-4.35-1.58-7s.53-4.97,1.58-6.97Zm19.69,1.54c-.85-1.58-2.01-2.79-3.47-3.64-1.46-.85-3.08-1.28-4.85-1.28s-3.47,.41-4.92,1.23-2.59,2.01-3.43,3.57c-.83,1.56-1.25,3.41-1.25,5.55s.42,3.96,1.25,5.55c.83,1.59,1.98,2.81,3.43,3.64s3.09,1.25,4.92,1.25,3.38-.42,4.85-1.28c1.47-.85,2.62-2.06,3.47-3.64,.85-1.58,1.28-3.4,1.28-5.48s-.43-3.91-1.28-5.48Z"/><path class="f" d="M260.51,124.85c1.81-1.81,4.42-2.72,7.82-2.72,2.05,0,3.81,.34,5.29,1.02s2.61,1.58,3.38,2.72c.77,1.13,1.16,2.4,1.16,3.78,0,1.48-.36,2.71-1.09,3.69s-1.76,2.05-3.12,3.21c-.95,.82-1.63,1.49-2.06,2.01-.43,.52-.64,1.08-.64,1.68,0,.79,.39,1.47,1.16,2.03,.77,.57,2.23,1.2,4.37,1.89,2.24,.73,3.87,1.68,4.89,2.86,1.02,1.18,1.54,2.67,1.54,4.47,0,2.24-.76,4.03-2.27,5.39-1.51,1.35-3.59,2.03-6.24,2.03s-4.81-.75-6.5-2.25-2.64-3.54-2.86-6.12h3.36c.16,1.73,.76,3.11,1.82,4.14,1.06,1.02,2.45,1.54,4.18,1.54,1.61,0,2.86-.4,3.76-1.21,.9-.8,1.35-1.9,1.35-3.29,0-1.26-.38-2.27-1.13-3.03s-2.05-1.43-3.88-2.03c-2.52-.85-4.3-1.72-5.34-2.6-1.04-.88-1.56-2.02-1.56-3.4,0-1.1,.3-2.06,.9-2.86,.6-.8,1.5-1.73,2.69-2.77,1.13-1.01,1.98-1.87,2.53-2.6,.55-.72,.83-1.58,.83-2.55,0-1.51-.59-2.72-1.77-3.62s-2.78-1.35-4.8-1.35c-2.4,0-4.19,.65-5.39,1.94-1.2,1.29-1.8,3.12-1.8,5.48v26.09h-3.31v-26.47c0-2.93,.91-5.3,2.72-7.11Z"/><path class="f" d="M313.15,146.81h-21.42c.1,1.95,.57,3.62,1.42,5.01,.85,1.39,1.97,2.43,3.36,3.14,1.39,.71,2.9,1.06,4.54,1.06,2.14,0,3.95-.52,5.41-1.56,1.46-1.04,2.43-2.44,2.91-4.21h3.5c-.63,2.52-1.98,4.58-4.04,6.17-2.06,1.59-4.66,2.39-7.78,2.39-2.43,0-4.6-.54-6.52-1.63-1.92-1.09-3.43-2.63-4.51-4.63-1.09-2-1.63-4.34-1.63-7.02s.54-5.03,1.61-7.04c1.07-2.02,2.57-3.56,4.49-4.63,1.92-1.07,4.11-1.61,6.57-1.61s4.61,.54,6.45,1.61c1.84,1.07,3.26,2.51,4.25,4.33,.99,1.81,1.49,3.82,1.49,6.03,0,1.13-.03,2-.09,2.6Zm-4.42-7.61c-.8-1.35-1.9-2.38-3.29-3.07s-2.9-1.04-4.54-1.04c-2.46,0-4.55,.79-6.29,2.36-1.73,1.58-2.7,3.8-2.88,6.67h18.15c.03-1.92-.35-3.56-1.16-4.92Z"/></svg>